<svg xmlns="http://www.w3.org/2000/svg" viewBox="0 0 1280 800" role="img" aria-labelledby="title desc">
  <title id="title">Job Search Optimizer thumbnail</title>
  <desc id="desc">Dashboard-style thumbnail for a job search strategy planner.</desc>
  <defs>
    <linearGradient id="bg" x1="0" y1="0" x2="1" y2="1">
      <stop offset="0" stop-color="#f8fafc"/>
      <stop offset="0.52" stop-color="#eef6ff"/>
      <stop offset="1" stop-color="#fff1f2"/>
    </linearGradient>
    <linearGradient id="blue" x1="0" y1="0" x2="1" y2="1">
      <stop offset="0" stop-color="#60a5fa"/>
      <stop offset="1" stop-color="#2563eb"/>
    </linearGradient>
    <linearGradient id="coral" x1="0" y1="0" x2="1" y2="1">
      <stop offset="0" stop-color="#fb7185"/>
      <stop offset="1" stop-color="#f43f5e"/>
    </linearGradient>
    <filter id="shadow" x="-20%" y="-20%" width="140%" height="140%">
      <feDropShadow dx="0" dy="24" stdDeviation="26" flood-color="#0f172a" flood-opacity="0.16"/>
    </filter>
  </defs>
  <rect width="1280" height="800" fill="url(#bg)"/>
  <g opacity="0.24" fill="none" stroke="#94a3b8" stroke-width="2">
    <path d="M0 160 C120 90 220 230 340 160 S560 90 680 160 900 230 1020 160 1160 90 1280 160"/>
    <path d="M0 650 C120 580 220 720 340 650 S560 580 680 650 900 720 1020 650 1160 580 1280 650"/>
  </g>
  <rect x="96" y="78" width="1088" height="644" rx="36" fill="#ffffff" filter="url(#shadow)"/>
  <rect x="96" y="78" width="1088" height="644" rx="36" fill="none" stroke="#cbd5e1" stroke-width="2"/>
  <g transform="translate(152 132)">
    <rect x="0" y="0" width="248" height="536" rx="28" fill="#f8fafc" stroke="#cbd5e1" stroke-width="2"/>
    <rect x="32" y="34" width="132" height="28" rx="14" fill="#eff6ff"/>
    <text x="48" y="54" fill="#2563eb" font-family="Inter, Arial, sans-serif" font-size="18" font-weight="700">STRATEGY</text>
    <g transform="translate(32 104)">
      <text x="0" y="0" fill="#0f172a" font-family="Inter, Arial, sans-serif" font-size="22" font-weight="700">Readiness</text>
      <rect x="0" y="30" width="184" height="12" rx="6" fill="#dbeafe"/>
      <rect x="0" y="30" width="138" height="12" rx="6" fill="#3b82f6"/>
    </g>
    <g transform="translate(32 190)">
      <text x="0" y="0" fill="#0f172a" font-family="Inter, Arial, sans-serif" font-size="22" font-weight="700">Company fit</text>
      <rect x="0" y="30" width="184" height="12" rx="6" fill="#ffe4e6"/>
      <rect x="0" y="30" width="104" height="12" rx="6" fill="#fb7185"/>
    </g>
    <g transform="translate(32 276)">
      <text x="0" y="0" fill="#0f172a" font-family="Inter, Arial, sans-serif" font-size="22" font-weight="700">Schedule</text>
      <rect x="0" y="30" width="184" height="12" rx="6" fill="#fef3c7"/>
      <rect x="0" y="30" width="156" height="12" rx="6" fill="#f59e0b"/>
    </g>
    <rect x="32" y="408" width="184" height="76" rx="18" fill="#0f172a"/>
    <text x="60" y="456" fill="#ffffff" font-family="Inter, Arial, sans-serif" font-size="24" font-weight="800">Optimize</text>
  </g>
  <g transform="translate(456 138)">
    <text x="0" y="0" fill="#0f172a" font-family="Inter, Arial, sans-serif" font-size="56" font-weight="800">Job Search</text>
    <text x="0" y="66" fill="#fb7185" font-family="Inter, Arial, sans-serif" font-size="56" font-weight="800">Optimizer</text>
    <text x="4" y="112" fill="#64748b" font-family="Inter, Arial, sans-serif" font-size="24" font-weight="600">Offer probability and timeline planner</text>
    <g transform="translate(0 178)">
      <rect x="0" y="0" width="274" height="156" rx="26" fill="#eff6ff" stroke="#bfdbfe" stroke-width="2"/>
      <text x="30" y="48" fill="#2563eb" font-family="Inter, Arial, sans-serif" font-size="20" font-weight="700">Offer Route</text>
      <text x="30" y="112" fill="#0f172a" font-family="Inter, Arial, sans-serif" font-size="54" font-weight="800">72%</text>
      <rect x="318" y="0" width="274" height="156" rx="26" fill="#fff1f2" stroke="#fecdd3" stroke-width="2"/>
      <text x="348" y="48" fill="#e11d48" font-family="Inter, Arial, sans-serif" font-size="20" font-weight="700">Risk Check</text>
      <text x="348" y="112" fill="#0f172a" font-family="Inter, Arial, sans-serif" font-size="54" font-weight="800">18d</text>
    </g>
    <g transform="translate(0 388)">
      <rect x="0" y="0" width="592" height="138" rx="26" fill="#ffffff" stroke="#cbd5e1" stroke-width="2"/>
      <path d="M52 90 C146 18 232 112 322 54 S496 28 540 72" fill="none" stroke="url(#blue)" stroke-width="12" stroke-linecap="round"/>
      <circle cx="52" cy="90" r="13" fill="#3b82f6"/>
      <circle cx="322" cy="54" r="13" fill="#3b82f6"/>
      <circle cx="540" cy="72" r="13" fill="#fb7185"/>
    </g>
  </g>
</svg>
